<svg style="display:none">

<!-- Contacts -->
<symbol id="Linkedin" viewBox="0 0 24 24" xmlns="http://www.w3.org/2000/svg"><path fill="none" d="M0 0h24v24H0z"/><path d="M18.335 18.339H15.67v-4.177c0-.996-.02-2.278-1.39-2.278-1.389 0-1.601 1.084-1.601 2.205v4.25h-2.666V9.75h2.56v1.17h.035c.358-.674 1.228-1.387 2.528-1.387 2.7 0 3.2 1.778 3.2 4.091v4.715zM7.003 8.575a1.546 1.546 0 0 1-1.548-1.549 1.548 1.548 0 1 1 1.547 1.549zm1.336 9.764H5.666V9.75H8.34v8.589zM19.67 3H4.329C3.593 3 3 3.58 3 4.297v15.406C3 20.42 3.594 21 4.328 21h15.338C20.4 21 21 20.42 21 19.703V4.297C21 3.58 20.4 3 19.666 3h.003z" fill="rgba(96,123,150,1)"/></symbol>
<symbol id="Instagram" viewBox="0 0 24 24" xmlns="http://www.w3.org/2000/svg"><path fill="none" d="M0 0h24v24H0z"/><path d="M12 2c2.717 0 3.056.01 4.122.06 1.065.05 1.79.217 2.428.465.66.254 1.216.598 1.772 1.153a4.908 4.908 0 0 1 1.153 1.772c.247.637.415 1.363.465 2.428.047 1.066.06 1.405.06 4.122 0 2.717-.01 3.056-.06 4.122-.05 1.065-.218 1.79-.465 2.428a4.883 4.883 0 0 1-1.153 1.772 4.915 4.915 0 0 1-1.772 1.153c-.637.247-1.363.415-2.428.465-1.066.047-1.405.06-4.122.06-2.717 0-3.056-.01-4.122-.06-1.065-.05-1.79-.218-2.428-.465a4.89 4.89 0 0 1-1.772-1.153 4.904 4.904 0 0 1-1.153-1.772c-.248-.637-.415-1.363-.465-2.428C2.013 15.056 2 14.717 2 12c0-2.717.01-3.056.06-4.122.05-1.066.217-1.79.465-2.428a4.88 4.88 0 0 1 1.153-1.772A4.897 4.897 0 0 1 5.45 2.525c.638-.248 1.362-.415 2.428-.465C8.944 2.013 9.283 2 12 2zm0 5a5 5 0 1 0 0 10 5 5 0 0 0 0-10zm6.5-.25a1.25 1.25 0 0 0-2.5 0 1.25 1.25 0 0 0 2.5 0zM12 9a3 3 0 1 1 0 6 3 3 0 0 1 0-6z" fill="rgba(96,123,150,1)"/></symbol>
<symbol id="Github" viewBox="0 0 24 24" xmlns="http://www.w3.org/2000/svg"><path fill="none" d="M0 0h24v24H0z"/><path d="M12 2C6.475 2 2 6.475 2 12a9.994 9.994 0 0 0 6.838 9.488c.5.087.687-.213.687-.476 0-.237-.013-1.024-.013-1.862-2.512.463-3.162-.612-3.362-1.175-.113-.288-.6-1.175-1.025-1.413-.35-.187-.85-.65-.013-.662.788-.013 1.35.725 1.538 1.025.9 1.512 2.338 1.087 2.912.825.088-.65.35-1.087.638-1.337-2.225-.25-4.55-1.113-4.55-4.938 0-1.088.387-1.987 1.025-2.688-.1-.25-.45-1.275.1-2.65 0 0 .837-.262 2.75 1.026a9.28 9.28 0 0 1 2.5-.338c.85 0 1.7.112 2.5.337 1.912-1.3 2.75-1.024 2.75-1.024.55 1.375.2 2.4.1 2.65.637.7 1.025 1.587 1.025 2.687 0 3.838-2.337 4.688-4.562 4.938.362.312.675.912.675 1.85 0 1.337-.013 2.412-.013 2.75 0 .262.188.574.688.474A10.016 10.016 0 0 0 22 12c0-5.525-4.475-10-10-10z" fill="rgba(96,123,150,1)"/></symbol>
<symbol id="Mail" viewBox="0 0 17 15" fill="none" xmlns="http://www.w3.org/2000/svg"><path d="M0.811096 0H15.4108C15.6259 0 15.8322 0.0854545 15.9844 0.237565C16.1365 0.389675 16.2219 0.59598 16.2219 0.811096V13.7886C16.2219 14.0038 16.1365 14.2101 15.9844 14.3622C15.8322 14.5143 15.6259 14.5997 15.4108 14.5997H0.811096C0.59598 14.5997 0.389675 14.5143 0.237565 14.3622C0.0854545 14.2101 0 14.0038 0 13.7886V0.811096C0 0.59598 0.0854545 0.389675 0.237565 0.237565C0.389675 0.0854545 0.59598 0 0.811096 0ZM8.15963 7.04275L2.95888 2.62633L1.90851 3.86244L8.17017 9.17918L14.3191 3.85838L13.2582 2.6312L8.16044 7.04275H8.15963Z" fill="#607B96"/></symbol>
<symbol id="Phone" viewBox="0 0 17 17" fill="none" xmlns="http://www.w3.org/2000/svg"><path d="M16.221 12.496V15.6825C16.2211 15.9107 16.1347 16.1304 15.9791 16.2973C15.8236 16.4642 15.6105 16.5659 15.3829 16.5819C14.9891 16.6089 14.6674 16.6234 14.4187 16.6234C6.45507 16.6234 0 10.1683 0 2.20468C0 1.95596 0.0135175 1.63424 0.0414537 1.24043C0.0574246 1.01283 0.159129 0.799769 0.326046 0.644225C0.492962 0.488682 0.712664 0.402241 0.940819 0.402344H4.12735C4.23913 0.402231 4.34696 0.44367 4.4299 0.518613C4.51283 0.593555 4.56495 0.69665 4.57613 0.80787C4.59686 1.01514 4.61578 1.18005 4.63381 1.30531C4.8129 2.55517 5.17992 3.77076 5.72242 4.91089C5.80803 5.09112 5.75215 5.3065 5.58994 5.42185L3.64522 6.81145C4.83427 9.58205 7.04222 11.79 9.81282 12.979L11.2006 11.0379C11.2573 10.9586 11.3401 10.9017 11.4345 10.8772C11.5288 10.8527 11.6288 10.862 11.717 10.9037C12.857 11.4451 14.0723 11.8112 15.3217 11.9896C15.4469 12.0076 15.6118 12.0274 15.8173 12.0472C15.9284 12.0586 16.0312 12.1108 16.106 12.1937C16.1807 12.2767 16.2221 12.3844 16.2219 12.496H16.221Z" fill="#607B96"/></symbol>


<!-- Actions -->
<symbol id="MenuHam" viewBox="0 0 18 16" fill="none" xmlns="http://www.w3.org/2000/svg"><path d="M0 0H18V2H0V0ZM0 7H18V9H0V7ZM0 14H18V16H0V14Z" fill="#607B96"/></symbol>
<symbol id="MenuClose" viewBox="0 0 16 16" fill="none" xmlns="http://www.w3.org/2000/svg"><path d="M8 6.2225L14.2225 0L16 1.7775L9.7775 8L16 14.2225L14.2225 16L8 9.7775L1.7775 16L0 14.2225L6.2225 8L0 1.7775L1.7775 0L8 6.2225Z" fill="#607B96"/></symbol>

<symbol id="ArrowUp" viewBox="0 0 9 7" fill="none" xmlns="http://www.w3.org/2000/svg"><path d="M4.50002 0.309143L8.75003 6.30914H0.25L4.50002 0.309143Z" fill="white"/></symbol>
<symbol id="ArrowLeft"  viewBox="0 0 7 10" fill="none" xmlns="http://www.w3.org/2000/svg"><path d="M0.0390623 4.80914L6.03906 0.559128L6.03906 9.05916L0.0390623 4.80914Z" fill="white"/></symbol>
<symbol id="ArrowDown" viewBox="0 0 9 7" fill="none" xmlns="http://www.w3.org/2000/svg"><path d="M4.49998 6.80914L0.24997 0.809142L8.75 0.809143L4.49998 6.80914Z" fill="white"/></symbol>
<symbol id="ArrowRight"  viewBox="0 0 7 10" fill="none" xmlns="http://www.w3.org/2000/svg"><path d="M6.96045 4.80914L0.960449 9.05916L0.960449 0.559128L6.96045 4.80914Z" fill="white"/></symbol>

<symbol id="Redirect" viewBox="0 0 16 17" fill="none" xmlns="http://www.w3.org/2000/svg"><path d="M6.22222 2.76969V4.54747H1.77778V14.3252H11.5556V9.88081H13.3333V15.2141C13.3333 15.4499 13.2397 15.676 13.073 15.8427C12.9063 16.0094 12.6802 16.103 12.4444 16.103H0.888889C0.653141 16.103 0.427048 16.0094 0.260349 15.8427C0.0936505 15.676 0 15.4499 0 15.2141V3.65858C0 3.42283 0.0936505 3.19674 0.260349 3.03004C0.427048 2.86334 0.653141 2.76969 0.888889 2.76969H6.22222ZM16 0.103027V7.21414H14.2222V3.13681L7.29511 10.0648L6.03822 8.80792L12.9644 1.88081H8.88889V0.103027H16Z" fill="#607B96"/></symbol>

</svg>
 