<svg style="display:none">

<!-- Contacts -->
<symbol id="Linkedin" viewBox="0 0 24 24" xmlns="http://www.w3.org/2000/svg"><path fill="none" d="M0 0h24v24H0z"/><path d="M18.335 18.339H15.67v-4.177c0-.996-.02-2.278-1.39-2.278-1.389 0-1.601 1.084-1.601 2.205v4.25h-2.666V9.75h2.56v1.17h.035c.358-.674 1.228-1.387 2.528-1.387 2.7 0 3.2 1.778 3.2 4.091v4.715zM7.003 8.575a1.546 1.546 0 0 1-1.548-1.549 1.548 1.548 0 1 1 1.547 1.549zm1.336 9.764H5.666V9.75H8.34v8.589zM19.67 3H4.329C3.593 3 3 3.58 3 4.297v15.406C3 20.42 3.594 21 4.328 21h15.338C20.4 21 21 20.42 21 19.703V4.297C21 3.58 20.4 3 19.666 3h.003z" fill="rgba(96,123,150,1)"/></symbol>
<symbol id="Instagram" viewBox="0 0 24 24" xmlns="http://www.w3.org/2000/svg"><path fill="none" d="M0 0h24v24H0z"/><path d="M12 2c2.717 0 3.056.01 4.122.06 1.065.05 1.79.217 2.428.465.66.254 1.216.598 1.772 1.153a4.908 4.908 0 0 1 1.153 1.772c.247.637.415 1.363.465 2.428.047 1.066.06 1.405.06 4.122 0 2.717-.01 3.056-.06 4.122-.05 1.065-.218 1.79-.465 2.428a4.883 4.883 0 0 1-1.153 1.772 4.915 4.915 0 0 1-1.772 1.153c-.637.247-1.363.415-2.428.465-1.066.047-1.405.06-4.122.06-2.717 0-3.056-.01-4.122-.06-1.065-.05-1.79-.218-2.428-.465a4.89 4.89 0 0 1-1.772-1.153 4.904 4.904 0 0 1-1.153-1.772c-.248-.637-.415-1.363-.465-2.428C2.013 15.056 2 14.717 2 12c0-2.717.01-3.056.06-4.122.05-1.066.217-1.79.465-2.428a4.88 4.88 0 0 1 1.153-1.772A4.897 4.897 0 0 1 5.45 2.525c.638-.248 1.362-.415 2.428-.465C8.944 2.013 9.283 2 12 2zm0 5a5 5 0 1 0 0 10 5 5 0 0 0 0-10zm6.5-.25a1.25 1.25 0 0 0-2.5 0 1.25 1.25 0 0 0 2.5 0zM12 9a3 3 0 1 1 0 6 3 3 0 0 1 0-6z" fill="rgba(96,123,150,1)"/></symbol>
<symbol id="Github" viewBox="0 0 24 24" xmlns="http://www.w3.org/2000/svg"><path fill="none" d="M0 0h24v24H0z"/><path d="M12 2C6.475 2 2 6.475 2 12a9.994 9.994 0 0 0 6.838 9.488c.5.087.687-.213.687-.476 0-.237-.013-1.024-.013-1.862-2.512.463-3.162-.612-3.362-1.175-.113-.288-.6-1.175-1.025-1.413-.35-.187-.85-.65-.013-.662.788-.013 1.35.725 1.538 1.025.9 1.512 2.338 1.087 2.912.825.088-.65.35-1.087.638-1.337-2.225-.25-4.55-1.113-4.55-4.938 0-1.088.387-1.987 1.025-2.688-.1-.25-.45-1.275.1-2.65 0 0 .837-.262 2.75 1.026a9.28 9.28 0 0 1 2.5-.338c.85 0 1.7.112 2.5.337 1.912-1.3 2.75-1.024 2.75-1.024.55 1.375.2 2.4.1 2.65.637.7 1.025 1.587 1.025 2.687 0 3.838-2.337 4.688-4.562 4.938.362.312.675.912.675 1.85 0 1.337-.013 2.412-.013 2.75 0 .262.188.574.688.474A10.016 10.016 0 0 0 22 12c0-5.525-4.475-10-10-10z" fill="rgba(96,123,150,1)"/></symbol>
<symbol id="Mail" viewBox="0 0 17 15" fill="none" xmlns="http://www.w3.org/2000/svg"><path d="M0.811096 0H15.4108C15.6259 0 15.8322 0.0854545 15.9844 0.237565C16.1365 0.389675 16.2219 0.59598 16.2219 0.811096V13.7886C16.2219 14.0038 16.1365 14.2101 15.9844 14.3622C15.8322 14.5143 15.6259 14.5997 15.4108 14.5997H0.811096C0.59598 14.5997 0.389675 14.5143 0.237565 14.3622C0.0854545 14.2101 0 14.0038 0 13.7886V0.811096C0 0.59598 0.0854545 0.389675 0.237565 0.237565C0.389675 0.0854545 0.59598 0 0.811096 0ZM8.15963 7.04275L2.95888 2.62633L1.90851 3.86244L8.17017 9.17918L14.3191 3.85838L13.2582 2.6312L8.16044 7.04275H8.15963Z" fill="#607B96"/></symbol>
<symbol id="Phone" viewBox="0 0 17 17" fill="none" xmlns="http://www.w3.org/2000/svg"><path d="M16.221 12.496V15.6825C16.2211 15.9107 16.1347 16.1304 15.9791 16.2973C15.8236 16.4642 15.6105 16.5659 15.3829 16.5819C14.9891 16.6089 14.6674 16.6234 14.4187 16.6234C6.45507 16.6234 0 10.1683 0 2.20468C0 1.95596 0.0135175 1.63424 0.0414537 1.24043C0.0574246 1.01283 0.159129 0.799769 0.326046 0.644225C0.492962 0.488682 0.712664 0.402241 0.940819 0.402344H4.12735C4.23913 0.402231 4.34696 0.44367 4.4299 0.518613C4.51283 0.593555 4.56495 0.69665 4.57613 0.80787C4.59686 1.01514 4.61578 1.18005 4.63381 1.30531C4.8129 2.55517 5.17992 3.77076 5.72242 4.91089C5.80803 5.09112 5.75215 5.3065 5.58994 5.42185L3.64522 6.81145C4.83427 9.58205 7.04222 11.79 9.81282 12.979L11.2006 11.0379C11.2573 10.9586 11.3401 10.9017 11.4345 10.8772C11.5288 10.8527 11.6288 10.862 11.717 10.9037C12.857 11.4451 14.0723 11.8112 15.3217 11.9896C15.4469 12.0076 15.6118 12.0274 15.8173 12.0472C15.9284 12.0586 16.0312 12.1108 16.106 12.1937C16.1807 12.2767 16.2221 12.3844 16.2219 12.496H16.221Z" fill="#607B96"/></symbol>

<!-- Actions -->
<symbol id="MenuHam" viewBox="0 0 18 16" fill="none" xmlns="http://www.w3.org/2000/svg"><path d="M0 0H18V2H0V0ZM0 7H18V9H0V7ZM0 14H18V16H0V14Z" fill="#607B96"/></symbol>
<symbol id="MenuClose" viewBox="0 0 16 16" fill="none" xmlns="http://www.w3.org/2000/svg"><path d="M8 6.2225L14.2225 0L16 1.7775L9.7775 8L16 14.2225L14.2225 16L8 9.7775L1.7775 16L0 14.2225L6.2225 8L0 1.7775L1.7775 0L8 6.2225Z" fill="#607B96"/></symbol>

<symbol id="GameX" viewBox="0 0 7 6" fill="none" xmlns="http://www.w3.org/2000/svg"><path d="M0.460938 5.56574L5.99951 0.976349M0.460938 0.976349L5.99951 5.56574" stroke="#114944"/></symbol>

<symbol id="ArrowUp" viewBox="0 0 9 7" fill="none" xmlns="http://www.w3.org/2000/svg"><path d="M4.50002 0.309143L8.75003 6.30914H0.25L4.50002 0.309143Z" fill="white"/></symbol>
<symbol id="ArrowLeft" viewBox="0 0 7 10" fill="none" xmlns="http://www.w3.org/2000/svg"><path d="M0.0390623 4.80914L6.03906 0.559128L6.03906 9.05916L0.0390623 4.80914Z" fill="white"/></symbol>
<symbol id="ArrowDown" viewBox="0 0 9 7" fill="none" xmlns="http://www.w3.org/2000/svg"><path d="M4.49998 6.80914L0.24997 0.809142L8.75 0.809143L4.49998 6.80914Z" fill="white"/></symbol>
<symbol id="ArrowRight" viewBox="0 0 7 10" fill="none" xmlns="http://www.w3.org/2000/svg"><path d="M6.96045 4.80914L0.960449 9.05916L0.960449 0.559128L6.96045 4.80914Z" fill="white"/></symbol>
<symbol id="ArrowFolder" viewBox="0 0 9 13" fill="none" xmlns="http://www.w3.org/2000/svg"><path d="M5.69609 6.50001L0.746093 1.55001L2.16009 0.136013L8.52409 6.50001L2.16009 12.864L0.746094 11.45L5.69609 6.50001Z" fill="#607B96"/></symbol>

<symbol id="Redirect" viewBox="0 0 16 17" fill="none" xmlns="http://www.w3.org/2000/svg"><path d="M6.22222 2.76969V4.54747H1.77778V14.3252H11.5556V9.88081H13.3333V15.2141C13.3333 15.4499 13.2397 15.676 13.073 15.8427C12.9063 16.0094 12.6802 16.103 12.4444 16.103H0.888889C0.653141 16.103 0.427048 16.0094 0.260349 15.8427C0.0936505 15.676 0 15.4499 0 15.2141V3.65858C0 3.42283 0.0936505 3.19674 0.260349 3.03004C0.427048 2.86334 0.653141 2.76969 0.888889 2.76969H6.22222ZM16 0.103027V7.21414H14.2222V3.13681L7.29511 10.0648L6.03822 8.80792L12.9644 1.88081H8.88889V0.103027H16Z" fill="#607B96"/></symbol>
<symbol id="Star" viewBox="0 0 18 17" fill="none" xmlns="http://www.w3.org/2000/svg"><path d="M9.06024 13.5627L3.77049 16.5237L4.95174 10.5777L0.500488 6.46168L6.52074 5.74768L9.06024 0.242676L11.5997 5.74768L17.62 6.46168L13.1687 10.5777L14.35 16.5237L9.06024 13.5627Z" fill="#607B96"/></symbol>

<symbol id="Checked" viewBox="0 0 13 10" fill="none" xmlns="http://www.w3.org/2000/svg"><path d="M5.38587 7.2802L11.9718 0.693573L12.9856 1.70668L5.38587 9.30641L0.826172 4.74671L1.83928 3.73361L5.38587 7.2802Z" fill="white"/></symbol>
<symbol id="OrangeFolder" viewBox="0 0 16 13" fill="none" xmlns="http://www.w3.org/2000/svg"><path d="M15.0802 3.61111V12.2778C15.0802 12.4693 15.0041 12.653 14.8687 12.7885C14.7332 12.9239 14.5495 13 14.358 13H1.35796C1.16642 13 0.982719 12.9239 0.847276 12.7885C0.711833 12.653 0.635742 12.4693 0.635742 12.2778V2.88889H14.358C14.5495 2.88889 14.7332 2.96498 14.8687 3.10042C15.0041 3.23587 15.0802 3.41957 15.0802 3.61111ZM8.15696 1.44444H0.635742V0.722222C0.635742 0.530677 0.711833 0.346977 0.847276 0.211534C0.982719 0.076091 1.16642 0 1.35796 0H6.71252L8.15696 1.44444Z" fill="#E99287"/></symbol>
<symbol id="GreenFolder" viewBox="0 0 16 13" fill="none" xmlns="http://www.w3.org/2000/svg"><path d="M15.0802 3.61111V12.2778C15.0802 12.4693 15.0041 12.653 14.8687 12.7885C14.7332 12.9239 14.5495 13 14.358 13H1.35796C1.16642 13 0.982719 12.9239 0.847276 12.7885C0.711833 12.653 0.635742 12.4693 0.635742 12.2778V2.88889H14.358C14.5495 2.88889 14.7332 2.96498 14.8687 3.10042C15.0041 3.23587 15.0802 3.41957 15.0802 3.61111ZM8.15696 1.44444H0.635742V0.722222C0.635742 0.530677 0.711833 0.346977 0.847276 0.211534C0.982719 0.076091 1.16642 0 1.35796 0H6.71252L8.15696 1.44444Z" fill="#43D9AD"/></symbol>
<symbol id="BlueFolder" viewBox="0 0 16 13" fill="none" xmlns="http://www.w3.org/2000/svg"><path d="M15.0802 3.61111V12.2778C15.0802 12.4693 15.0041 12.653 14.8687 12.7885C14.7332 12.9239 14.5495 13 14.358 13H1.35796C1.16642 13 0.982719 12.9239 0.847276 12.7885C0.711833 12.653 0.635742 12.4693 0.635742 12.2778V2.88889H14.358C14.5495 2.88889 14.7332 2.96498 14.8687 3.10042C15.0041 3.23587 15.0802 3.41957 15.0802 3.61111ZM8.15696 1.44444H0.635742V0.722222C0.635742 0.530677 0.711833 0.346977 0.847276 0.211534C0.982719 0.076091 1.16642 0 1.35796 0H6.71252L8.15696 1.44444Z" fill="#3A49A4"/></symbol>
<symbol id="Markdown" viewBox="0 0 17 15" fill="none" xmlns="http://www.w3.org/2000/svg"><path d="M1.44684 0.142212H16.0466C16.2617 0.142212 16.468 0.227666 16.6201 0.379776C16.7722 0.531886 16.8577 0.738192 16.8577 0.953308V13.9308C16.8577 14.146 16.7722 14.3523 16.6201 14.5044C16.468 14.6565 16.2617 14.7419 16.0466 14.7419H1.44684C1.23172 14.7419 1.02542 14.6565 0.873307 14.5044C0.721197 14.3523 0.635742 14.146 0.635742 13.9308V0.953308C0.635742 0.738192 0.721197 0.531886 0.873307 0.379776C1.02542 0.227666 1.23172 0.142212 1.44684 0.142212ZM4.69122 10.2809V7.03653L6.31342 8.65872L7.93561 7.03653V10.2809H9.5578V4.60324H7.93561L6.31342 6.22543L4.69122 4.60324H3.06903V10.2809H4.69122ZM13.6133 7.84763V4.60324H11.9911V7.84763H10.3689L12.8022 10.2809L15.2355 7.84763H13.6133Z" fill="#81A1C1"/></symbol>

<symbol id="Conversation" viewBox="0 0 15 16" fill="none" xmlns="http://www.w3.org/2000/svg"><path d="M2.19676 13.1709C1.49928 12.4753 0.946158 11.6486 0.569167 10.7385C0.192176 9.82841 -0.00124976 8.85277 6.07612e-06 7.86768C6.07612e-06 3.72543 3.35776 0.367676 7.50001 0.367676C11.6423 0.367676 15 3.72543 15 7.86768C15 12.0099 11.6423 15.3677 7.50001 15.3677H6.07612e-06L2.19676 13.1709ZM4.50001 8.61768C4.50001 9.41333 4.81608 10.1764 5.37869 10.739C5.94129 11.3016 6.70436 11.6177 7.50001 11.6177C8.29566 11.6177 9.05872 11.3016 9.62133 10.739C10.1839 10.1764 10.5 9.41333 10.5 8.61768H4.50001Z" fill="#607B96"/></symbol>
<symbol id="Warning" viewBox="0 0 24 24" xmlns="http://www.w3.org/2000/svg" ><path fill="none" d="M0 0h24v24H0z"/><path d="M12 22C6.477 22 2 17.523 2 12S6.477 2 12 2s10 4.477 10 10-4.477 10-10 10zm-1-7v2h2v-2h-2zm0-8v6h2V7h-2z" fill="rgba(254,165,95,1)"/></symbol>

<!-- Techs -->
<symbol id="Gatsby" viewBox="0 0 21 20" fill="none" xmlns="http://www.w3.org/2000/svg"><path d="M10.3115 0C4.81152 0 0.311523 4.5 0.311523 10C0.311523 15.5 4.81152 20 10.3115 20C15.8115 20 20.3115 15.5 20.3115 10C20.3115 4.5 15.8115 0 10.3115 0ZM4.74052 15.571C3.24052 14.071 2.45452 12.071 2.45452 10.143L10.2405 17.857C8.24052 17.786 6.24052 17.071 4.74052 15.571ZM12.0255 17.643L2.66852 8.286C3.45452 4.786 6.59752 2.143 10.3115 2.143C12.9545 2.143 15.2405 3.429 16.6685 5.357L15.5975 6.286C14.3815 4.643 12.4545 3.57 10.3115 3.57C7.52552 3.57 5.16852 5.356 4.24052 7.856L12.4545 16.07C14.5255 15.356 16.0975 13.57 16.5975 11.428H13.1685V10H18.1685C18.1685 13.714 15.5255 16.857 12.0255 17.643Z" fill="#607B96"/></symbol>
<symbol id="React" viewBox="0 0 22 20" fill="none" xmlns="http://www.w3.org/2000/svg"><path d="M11.3115 11.5C10.9137 11.5 10.5322 11.342 10.2509 11.0607C9.96956 10.7793 9.81152 10.3978 9.81152 9.99999C9.81152 9.60217 9.96956 9.22064 10.2509 8.93933C10.5322 8.65803 10.9137 8.49999 11.3115 8.49999C11.7093 8.49999 12.0909 8.65803 12.3722 8.93933C12.6535 9.22064 12.8115 9.60217 12.8115 9.99999C12.8115 10.3978 12.6535 10.7793 12.3722 11.0607C12.0909 11.342 11.7093 11.5 11.3115 11.5ZM10.7835 14.494C10.9585 14.704 11.1345 14.908 11.3115 15.103C11.4885 14.908 11.6645 14.705 11.8395 14.494C11.4876 14.5015 11.1355 14.5015 10.7835 14.494ZM8.78852 14.369C8.02058 14.2891 7.25772 14.1662 6.50352 14.001C6.42852 14.351 6.37152 14.691 6.33352 15.017C6.14352 16.6 6.40852 17.562 6.81152 17.794C7.21452 18.027 8.17952 17.775 9.45652 16.82C9.71952 16.623 9.98452 16.404 10.2505 16.165C9.73002 15.5941 9.24192 14.9945 8.78852 14.369ZM16.1195 14.001C15.4025 14.161 14.6365 14.285 13.8345 14.369C13.3811 14.9945 12.893 15.5941 12.3725 16.165C12.6385 16.405 12.9035 16.623 13.1665 16.82C14.4435 17.775 15.4085 18.027 15.8115 17.794C16.2145 17.562 16.4785 16.6 16.2905 15.017C16.2492 14.6759 16.1925 14.3369 16.1205 14.001H16.1195ZM17.5695 13.614C18.1465 16.253 17.8435 18.354 16.5615 19.094C15.2795 19.834 13.3085 19.046 11.3115 17.227C9.31452 19.046 7.34352 19.833 6.06152 19.093C4.77952 18.353 4.47652 16.253 5.05252 13.613C2.47852 12.794 0.811523 11.48 0.811523 9.99999C0.811523 8.51999 2.47852 7.20699 5.05252 6.38599C4.47652 3.74699 4.77952 1.64599 6.06152 0.905992C7.34352 0.165992 9.31452 0.953992 11.3115 2.77299C13.3085 0.953992 15.2795 0.166992 16.5615 0.906992C17.8435 1.64699 18.1465 3.74699 17.5705 6.38699C20.1445 7.20599 21.8115 8.51999 21.8115 9.99999C21.8115 11.48 20.1445 12.793 17.5705 13.614H17.5695ZM10.2495 3.83499C9.99521 3.6048 9.73061 3.38624 9.45652 3.17999C8.17952 2.22499 7.21452 1.97299 6.81152 2.20599C6.40852 2.43799 6.14452 3.39999 6.33252 4.98299C6.37252 5.30999 6.42852 5.64899 6.50252 5.99899C7.25705 5.83373 8.02025 5.71087 8.78852 5.63099C9.26352 4.97799 9.75352 4.37699 10.2505 3.83499H10.2495ZM13.8345 5.63099C14.6365 5.71499 15.4025 5.83999 16.1195 5.99899C16.1945 5.64899 16.2515 5.30899 16.2895 4.98299C16.4795 3.39999 16.2145 2.43799 15.8115 2.20599C15.4085 1.97299 14.4435 2.22499 13.1665 3.17999C12.8921 3.38622 12.6272 3.60477 12.3725 3.83499C12.8695 4.37699 13.3595 4.97799 13.8345 5.63099ZM11.8395 5.50599C11.6645 5.29599 11.4885 5.09199 11.3115 4.89699C11.1345 5.09199 10.9585 5.29499 10.7835 5.50599C11.1355 5.49852 11.4876 5.49852 11.8395 5.50599ZM7.68352 12.704C7.50108 12.4031 7.32504 12.0984 7.15552 11.79C7.06052 12.047 6.97252 12.3 6.89252 12.551C7.14952 12.607 7.41352 12.658 7.68252 12.704H7.68352ZM9.61552 12.938C10.7446 13.0219 11.8784 13.0219 13.0075 12.938C13.6447 12.0019 14.2116 11.0199 14.7035 9.99999C14.2116 8.98007 13.6447 7.99804 13.0075 7.06199C11.8784 6.97813 10.7446 6.97813 9.61552 7.06199C8.97832 7.99804 8.41143 8.98007 7.91952 9.99999C8.41143 11.0199 8.97832 12.0019 9.61552 12.938ZM15.4675 8.20999C15.5625 7.95299 15.6505 7.69999 15.7305 7.44899C15.4684 7.3921 15.205 7.34109 14.9405 7.29599C15.1226 7.5969 15.2983 7.90164 15.4675 8.20999ZM5.44152 7.83699C5.10152 7.94699 4.77952 8.06699 4.47752 8.19699C3.01252 8.82499 2.31152 9.53499 2.31152 9.99999C2.31152 10.465 3.01152 11.175 4.47752 11.803C4.77952 11.933 5.10152 12.053 5.44152 12.163C5.66352 11.463 5.93852 10.737 6.26652 9.99999C5.95135 9.29496 5.67592 8.57283 5.44152 7.83699ZM6.89152 7.44899C6.97252 7.69899 7.06052 7.95299 7.15552 8.20899C7.32505 7.90096 7.50109 7.59656 7.68352 7.29599C7.41352 7.34199 7.14952 7.39299 6.89252 7.44899H6.89152ZM17.1815 12.163C17.5215 12.053 17.8435 11.933 18.1455 11.803C19.6105 11.175 20.3115 10.465 20.3115 9.99999C20.3115 9.53499 19.6115 8.82499 18.1455 8.19699C17.8298 8.06249 17.5081 7.94237 17.1815 7.83699C16.9595 8.53699 16.6845 9.26299 16.3565 9.99999C16.6845 10.737 16.9595 11.462 17.1815 12.163ZM15.7315 12.551C15.6505 12.301 15.5625 12.047 15.4675 11.791C15.298 12.099 15.122 12.4034 14.9395 12.704C15.2095 12.658 15.4735 12.607 15.7305 12.551H15.7315Z" fill="#607B96"/></symbol>
<symbol id="SASS" viewBox="0 0 20 20" fill="none" xmlns="http://www.w3.org/2000/svg"><g clip-path="url(#clip0_2911_987)"><path d="M10 20C15.5225 20 20 15.5225 20 10C20 4.4775 15.5225 0 10 0C4.4775 0 0 4.4775 0 10C0 15.5225 4.4775 20 10 20ZM5.3425 5.6325C6.63333 4.425 8.42917 3.49917 10.0867 2.91C12.8742 1.91917 15.82 2.50333 16.2717 4.28083L16.2108 4.225C16.6483 5.975 15.1358 8.06333 13.1992 8.8125C11.4742 9.48667 10.0358 9.375 9.44917 9.1875C8.77333 8.9625 8.38583 8.525 8.28583 8.275C8.24833 8.175 8.18583 8.0125 8.28583 7.9625C8.34833 7.92417 8.37333 7.93667 8.5475 8.12417C8.71083 8.3 9.34833 8.77417 10.5733 8.63667C13.7858 8.275 15.71 5.78667 15.0992 4.45C14.6742 3.5125 12.2108 3.08667 9.12333 4.625C5.36083 6.5 5.14833 8.04917 5.12333 8.63667C5.03583 10.2492 7.12333 11.0992 8.24833 12.3117C8.285 12.3367 8.31083 12.3617 8.33583 12.3992C8.6725 12.2617 9.14833 12.1992 9.89833 12.1858C11.7225 12.1617 12.7483 13.3608 12.7108 14.4358C12.6733 15.2867 11.8975 15.6367 11.76 15.6617C11.6608 15.6742 11.5975 15.6742 11.585 15.5992C11.5733 15.5483 11.6108 15.5242 11.7358 15.4483C11.8617 15.3733 12.2225 15.1108 12.2975 14.6617C12.3733 14.2117 12.0233 13.1117 10.2725 12.9117C9.6475 12.8358 9.16083 12.8858 8.7475 12.9983C9.04917 13.6608 9.11083 15.0108 8.41083 16.0617C7.68583 17.1358 6.33583 17.7992 5.02333 17.4358C4.59833 17.3242 3.94833 16.4483 4.51083 15.2233C5.03583 14.06 7.27667 12.9358 7.5825 12.7858V12.7808C6.54417 11.8867 4.01917 10.6817 3.66333 8.83917C3.5625 8.31667 3.80667 7.06667 5.3425 5.6325V5.6325Z" fill="#607B96"/><path d="M5.66918 16.4675C6.01751 16.6692 6.82918 16.4292 7.41084 15.7967C7.60168 15.5883 7.75668 15.3633 7.87334 15.1217C7.89501 15.075 7.91834 15.0258 7.93834 14.975L7.99251 14.825C8.14251 14.3717 8.15834 13.8692 8.01251 13.3317L7.92251 13.3825V13.385C7.92251 13.385 6.88168 13.8775 6.15584 14.6425C5.48084 15.355 5.29418 16.2492 5.66918 16.4675V16.4675Z" fill="#607B96"/></g><defs><clipPath id="clip0_2911_987"><rect fill="white"/></clipPath></defs></symbol>
<symbol id="CSS" viewBox="0 0 21 18" fill="none" xmlns="http://www.w3.org/2000/svg"><path d="M3.31109 0L2.66109 3.34H16.2511L15.8111 5.5H2.23109L1.57109 8.83H15.1611L14.4011 12.64L8.92109 14.45L4.17109 12.64L4.50109 11H1.16109L0.371094 15L8.22109 18L17.2711 15L18.4711 8.97L18.7111 7.76L20.2511 0H3.31109Z" fill="#607B96"/></symbol>
<symbol id="NextJs" viewBox="0 0 20 20" fill="none" xmlns="http://www.w3.org/2000/svg"><g clip-path="url(#clip0_2910_982)"><path d="M9.34577 0.015631C9.3028 0.0195369 9.1661 0.0332074 9.04306 0.0429721C6.20545 0.298806 3.54751 1.82991 1.86408 4.18319C0.926668 5.49166 0.327118 6.97589 0.100577 8.548C0.0205069 9.09678 0.0107422 9.25887 0.0107422 10.0029C0.0107422 10.747 0.0205069 10.9091 0.100577 11.4579C0.643493 15.2095 3.31315 18.3615 6.93389 19.5294C7.58227 19.7383 8.2658 19.8809 9.04306 19.9668C9.34577 20 10.6542 20 10.9569 19.9668C12.2986 19.8184 13.4352 19.4864 14.5562 18.9142C14.7281 18.8263 14.7613 18.8029 14.7378 18.7833C14.7222 18.7716 13.9898 17.7893 13.111 16.6019L11.5135 14.4439L9.51177 11.4813C8.41031 9.85256 7.50415 8.52066 7.49634 8.52066C7.48853 8.51871 7.48072 9.83499 7.47681 11.4423C7.47095 14.2564 7.469 14.3697 7.43385 14.4361C7.38307 14.5318 7.34401 14.5708 7.26199 14.6138C7.19949 14.6451 7.14481 14.6509 6.84992 14.6509H6.51206L6.42223 14.5943C6.36364 14.5572 6.32067 14.5084 6.29138 14.4517L6.25037 14.3638L6.25427 10.4482L6.26013 6.53062L6.32067 6.45445C6.35192 6.41344 6.41832 6.36071 6.46519 6.33533C6.54526 6.29627 6.57651 6.29236 6.91436 6.29236C7.31276 6.29236 7.37916 6.30799 7.48267 6.42126C7.51196 6.4525 8.59584 8.08516 9.89259 10.0518C11.1893 12.0184 12.9626 14.7037 13.8336 16.0219L15.4155 18.4181L15.4956 18.3654C16.2045 17.9045 16.9544 17.2483 17.5481 16.5648C18.8116 15.1138 19.626 13.3444 19.8994 11.4579C19.9795 10.9091 19.9893 10.747 19.9893 10.0029C19.9893 9.25887 19.9795 9.09678 19.8994 8.548C19.3565 4.79641 16.6868 1.64438 13.0661 0.476523C12.4275 0.269512 11.7479 0.126948 10.9862 0.0410191C10.7988 0.0214898 9.50786 7.51288e-06 9.34577 0.015631V0.015631ZM13.4352 6.05801C13.529 6.10488 13.6051 6.19471 13.6325 6.28846C13.6481 6.33923 13.652 7.42506 13.6481 9.87209L13.6422 13.3835L13.0231 12.4343L12.4021 11.4852V8.93273C12.4021 7.2825 12.4099 6.35486 12.4216 6.30994C12.4529 6.20057 12.5212 6.11464 12.615 6.06387C12.6951 6.02286 12.7243 6.01895 13.031 6.01895C13.32 6.01895 13.3708 6.02286 13.4352 6.05801V6.05801Z" fill="#607B96"/><path d="M15.3179 18.4611C15.2495 18.504 15.228 18.5333 15.2886 18.5001C15.3315 18.4747 15.4018 18.422 15.3901 18.42C15.3843 18.42 15.3511 18.4396 15.3179 18.4611ZM15.1831 18.5489C15.148 18.5763 15.148 18.5782 15.1909 18.5567C15.2144 18.545 15.2339 18.5314 15.2339 18.5275C15.2339 18.5118 15.2241 18.5157 15.1831 18.5489ZM15.0855 18.6075C15.0503 18.6349 15.0503 18.6368 15.0933 18.6153C15.1167 18.6036 15.1362 18.5899 15.1362 18.586C15.1362 18.5704 15.1265 18.5743 15.0855 18.6075ZM14.9878 18.6661C14.9527 18.6935 14.9527 18.6954 14.9956 18.6739C15.0191 18.6622 15.0386 18.6485 15.0386 18.6446C15.0386 18.629 15.0288 18.6329 14.9878 18.6661ZM14.8394 18.7442C14.7652 18.7833 14.7691 18.7989 14.8433 18.7618C14.8765 18.7442 14.9019 18.7267 14.9019 18.7227C14.9019 18.7091 14.8999 18.711 14.8394 18.7442Z" fill="#607B96"/></g><defs><clipPath id="clip0_2910_982"><rect fill="white"/></clipPath></defs></symbol>
<symbol id="Tailwind" viewBox="0 0 20 12" fill="none" xmlns="http://www.w3.org/2000/svg"><path d="M9.99604 0C7.33035 0 5.66438 1.33336 4.9979 3.99983C5.99763 2.66647 7.16385 2.16665 8.49657 2.49986C9.25706 2.68999 9.80055 3.24209 10.4023 3.85299C11.3823 4.84813 12.5165 5.99987 14.9942 5.99987C17.6596 5.99987 19.3258 4.66651 19.9921 1.99979C18.9926 3.33315 17.8264 3.83323 16.4934 3.50001C15.7332 3.30989 15.1897 2.75778 14.5879 2.14689C13.608 1.15174 12.4735 0 9.99604 0V0ZM4.9979 5.99987C2.33245 5.99987 0.666236 7.33324 0 9.99996C0.999479 8.6666 2.16571 8.16652 3.49868 8.49999C4.25891 8.69036 4.8024 9.24222 5.40414 9.85286C6.38412 10.848 7.51859 12 9.99604 12C12.6617 12 14.3277 10.6666 14.9942 7.99992C13.9945 9.33328 12.8282 9.83335 11.4955 9.49989C10.735 9.31001 10.1915 8.75766 9.5898 8.14701C8.60982 7.15187 7.47559 5.99987 4.9979 5.99987V5.99987Z" fill="#607B96"/></symbol>
<symbol id="VTEX" viewBox="0 0 21 18" fill="none" xmlns="http://www.w3.org/2000/svg"><path d="M18.7312 0H3.79663C2.6386 0 1.89706 1.23111 2.43894 2.25457L3.9328 5.08335H1.22461C1.0531 5.08341 0.884513 5.12775 0.735176 5.21209C0.585838 5.29643 0.460812 5.4179 0.372206 5.56475C0.283601 5.71159 0.23442 5.87883 0.229426 6.05027C0.224433 6.2217 0.263796 6.39152 0.343704 6.54327L5.14873 15.6378C5.23344 15.7978 5.36014 15.9316 5.5152 16.0249C5.67027 16.1183 5.84784 16.1676 6.02884 16.1676C6.20983 16.1676 6.3874 16.1183 6.54247 16.0249C6.69754 15.9316 6.82423 15.7978 6.90894 15.6378L8.21392 13.1812L9.85114 16.2807C10.4274 17.3709 11.9883 17.3729 12.5665 16.2839L20.0522 2.19746C20.5813 1.20116 19.8593 0 18.7312 0V0ZM12.0226 6.01856L8.79493 12.0938C8.73852 12.2002 8.6542 12.2892 8.55103 12.3513C8.44786 12.4133 8.32973 12.4461 8.20933 12.4461C8.08893 12.4461 7.9708 12.4133 7.86763 12.3513C7.76446 12.2892 7.68014 12.2002 7.62372 12.0938L4.42716 6.04412C4.37373 5.94325 4.34726 5.8303 4.3503 5.7162C4.35333 5.6021 4.38578 5.49071 4.4445 5.39283C4.50322 5.29495 4.58622 5.2139 4.68546 5.15751C4.78471 5.10112 4.89683 5.07131 5.01097 5.07098H11.4532C11.5645 5.07098 11.6739 5.09978 11.7707 5.15458C11.8676 5.20938 11.9486 5.28831 12.006 5.3837C12.0633 5.47909 12.0949 5.58769 12.0979 5.69894C12.1008 5.81019 12.0749 5.9203 12.0226 6.01856Z" fill="#607B96"/></symbol>

</svg>
 